<svg width="34" height="34" viewBox="0 0 34 34" fill="none" xmlns="http://www.w3.org/2000/svg">
<ellipse cx="16.857" cy="16.9025" rx="16.2857" ry="16.0988" fill="#313131"/>
<path d="M24.1855 11.9296C24.1855 10.7247 23.1097 9.66162 21.8904 9.66162H12.6379C11.4186 9.66162 10.3428 10.7247 10.3428 11.9296V21.0721C10.3428 22.277 11.4186 23.3401 12.6379 23.3401H17.3V18.1664H15.5786V15.8984H17.3V14.9771C17.3 13.4179 18.4476 12.0713 19.8821 12.0713H21.7469V14.3392H19.8821C19.6669 14.3392 19.4517 14.5518 19.4517 14.9771V15.8984H21.7469V18.1664H19.4517V23.3401H21.8904C23.1097 23.3401 24.1855 22.277 24.1855 21.0721V11.9296Z" fill="#C7C7C7"/>
</svg>
