<svg width="34" height="34" viewBox="0 0 34 34" fill="none" xmlns="http://www.w3.org/2000/svg">
<ellipse cx="17.0001" cy="16.9025" rx="16.2857" ry="16.0988" fill="#313131"/>
<path d="M22.3588 10.4644H12.4558C11.3377 10.4644 10.4858 11.3063 10.4858 12.4114V22.1994C10.4858 23.3045 11.3377 24.1465 12.4558 24.1465H22.3588C23.4769 24.1465 24.3287 23.3045 24.3287 22.1994V12.4114C24.3287 11.3063 23.4769 10.4644 22.3588 10.4644ZM17.4073 21.4101C19.6967 21.4101 21.5602 19.6209 21.5602 17.4633C21.5602 17.0949 21.5069 16.6739 21.4004 16.3582H22.5718V21.9363C22.5718 22.1994 22.3588 22.4625 22.0393 22.4625H12.7752C12.509 22.4625 12.2428 22.252 12.2428 21.9363V16.3056H13.4674C13.3609 16.6739 13.3077 17.0423 13.3077 17.4107C13.2544 19.6209 15.1179 21.4101 17.4073 21.4101ZM17.4073 19.8314C15.9165 19.8314 14.7452 18.6736 14.7452 17.2528C14.7452 15.832 15.9165 14.6742 17.4073 14.6742C18.8981 14.6742 20.0694 15.832 20.0694 17.2528C20.0694 18.7263 18.8981 19.8314 17.4073 19.8314ZM22.5185 14.2006C22.5185 14.5164 22.2523 14.7795 21.9328 14.7795H20.4421C20.1226 14.7795 19.8564 14.5164 19.8564 14.2006V12.7798C19.8564 12.4641 20.1226 12.2009 20.4421 12.2009H21.9328C22.2523 12.2009 22.5185 12.4641 22.5185 12.7798V14.2006Z" fill="#C7C7C7"/>
</svg>
