<svg width="33" height="33" viewBox="0 0 33 33" fill="none" xmlns="http://www.w3.org/2000/svg">
<ellipse cx="16.7144" cy="16.1007" rx="16.2857" ry="16.1007" fill="#313131"/>
<path d="M8.0429 16.4008L11.7871 17.7807L13.2467 22.4218C13.3101 22.7354 13.6909 22.7982 13.9447 22.61L16.0389 20.9166C16.2293 20.7284 16.5466 20.7284 16.8004 20.9166L20.5446 23.6135C20.7984 23.8017 21.1792 23.6762 21.2427 23.3626L24.0349 10.1917C24.0984 9.87809 23.7811 9.5645 23.4638 9.68994L8.0429 15.5855C7.66213 15.7109 7.66213 16.2754 8.0429 16.4008ZM13.0563 17.0908L20.4177 12.6377C20.5446 12.575 20.6715 12.7632 20.5446 12.8259L14.5159 18.4078C14.3255 18.596 14.1351 18.8469 14.1351 19.1605L13.9447 20.6657C13.9447 20.8539 13.6274 20.9166 13.564 20.6657L12.8024 17.9061C12.612 17.5925 12.739 17.2162 13.0563 17.0908Z" fill="#C7C7C7"/>
</svg>
