<svg width="34" height="33" viewBox="0 0 34 33" fill="none" xmlns="http://www.w3.org/2000/svg">
<ellipse cx="16.8571" cy="16.1007" rx="16.2858" ry="16.1007" fill="#313131"/>
<path d="M24.8421 20.2142C24.8421 20.1474 24.7744 20.1474 24.7744 20.0806C24.504 19.546 23.8956 18.8778 23.0843 18.1427C22.6787 17.8086 22.4759 17.5413 22.3407 17.4077C22.1379 17.1404 22.1379 16.9399 22.2055 16.6726C22.2731 16.4722 22.5435 16.138 23.0167 15.5366C23.2871 15.2025 23.4223 15.0021 23.6252 14.8016C24.6392 13.4651 25.1125 12.5964 24.9772 12.1955L24.9097 12.1287C24.8421 12.0619 24.7744 11.995 24.6392 11.995C24.504 11.9282 24.3012 11.9282 24.0984 11.995H21.5294C21.4618 11.995 21.4618 11.995 21.3266 11.995C21.259 11.995 21.1914 11.995 21.1914 11.995H21.1238H21.0562L20.9886 12.0618C20.921 12.1287 20.921 12.1287 20.921 12.1955C20.6506 12.9305 20.3125 13.5319 19.9745 14.2002C19.7717 14.5343 19.5689 14.8684 19.3661 15.1357C19.1633 15.403 19.0281 15.6035 18.8929 15.7371C18.7576 15.8707 18.6224 15.9376 18.5548 16.0712C18.4872 16.138 18.352 16.2049 18.352 16.138C18.2844 16.138 18.2168 16.138 18.2168 16.0712C18.1492 16.0044 18.0816 15.9376 18.014 15.8707C17.9464 15.8039 17.9464 15.6703 17.8788 15.5366C17.8788 15.403 17.8788 15.2693 17.8788 15.2025C17.8788 15.1357 17.8788 14.9352 17.8788 14.8016C17.8788 14.6011 17.8788 14.4675 17.8788 14.4006C17.8788 14.2002 17.8788 13.9329 17.8788 13.6656C17.8788 13.3983 17.8788 13.1978 17.8788 13.0642C17.8788 12.9305 17.8788 12.7301 17.8788 12.5964C17.8788 12.396 17.8788 12.2623 17.8788 12.1955C17.8788 12.1287 17.8112 11.995 17.8112 11.9282C17.7436 11.8614 17.676 11.7946 17.6084 11.7277C17.5408 11.6609 17.4056 11.6609 17.338 11.5941C16.9999 11.5273 16.5943 11.4604 16.1211 11.4604C15.0394 11.4604 14.2958 11.5273 14.0253 11.6609C13.8901 11.7277 13.7549 11.7946 13.6873 11.9282C13.5521 12.0619 13.5521 12.1287 13.6197 12.1287C13.9577 12.1955 14.2282 12.3291 14.3634 12.5296L14.431 12.6633C14.4986 12.7301 14.4986 12.8637 14.5662 13.0642C14.6338 13.2647 14.6338 13.4651 14.6338 13.7324C14.6338 14.1334 14.6338 14.5343 14.6338 14.8016C14.6338 15.1357 14.5662 15.3362 14.5662 15.5366C14.5662 15.7371 14.4986 15.8707 14.431 15.9376C14.3634 16.0712 14.3634 16.138 14.2958 16.138C14.2958 16.138 14.2958 16.2049 14.2281 16.2049C14.1605 16.2049 14.0929 16.2717 13.9577 16.2717C13.8901 16.2717 13.7549 16.2049 13.6873 16.138C13.5521 16.0712 13.4169 15.9376 13.3493 15.8039C13.2141 15.6703 13.0789 15.4698 12.9437 15.2025C12.8085 14.9352 12.6056 14.6679 12.4704 14.267L12.3352 13.9997C12.2676 13.8661 12.1324 13.5988 11.9972 13.2647C11.862 12.9305 11.7268 12.6633 11.5916 12.3291C11.524 12.1955 11.4564 12.1287 11.3888 12.0618H11.3212C11.3212 12.0618 11.2536 11.995 11.186 11.995C11.1183 11.995 11.0508 11.9282 10.9831 11.9282H8.54938C8.27896 11.9282 8.14376 11.995 8.07615 12.0618L8.00854 12.1287C8.00854 12.1287 8.00854 12.1955 8.00854 12.2623C8.00854 12.3291 8.00855 12.396 8.07615 12.5296C8.41418 13.3315 8.8198 14.1334 9.22543 14.9352C9.63105 15.6703 10.0367 16.3385 10.3071 16.8063C10.6451 17.274 10.9155 17.7418 11.2536 18.1427C11.5916 18.5437 11.7944 18.8109 11.862 18.9446C11.9972 19.0782 12.0648 19.145 12.1324 19.2119L12.3352 19.4123C12.4704 19.546 12.6733 19.7465 12.9437 19.9469C13.2141 20.1474 13.5521 20.3479 13.8901 20.5483C14.2281 20.7488 14.6338 20.8824 15.0394 21.0161C15.5126 21.1497 15.9183 21.2166 16.3239 21.1497H17.338C17.5408 21.1497 17.676 21.0829 17.8112 20.9493L17.8788 20.8824C17.8788 20.8156 17.9464 20.8156 17.9464 20.7488C17.9464 20.682 17.9464 20.6152 17.9464 20.4815C17.9464 20.2142 17.9464 20.0138 18.014 19.8133C18.0816 19.6128 18.0816 19.4792 18.1492 19.3455C18.2168 19.2119 18.2844 19.1451 18.352 19.0782C18.4196 19.0114 18.4872 18.9446 18.4872 18.9446H18.5548C18.69 18.8778 18.8929 18.9446 19.0281 19.0782C19.2309 19.2119 19.4337 19.4123 19.5689 19.6128C19.7041 19.8133 19.9069 20.0137 20.1774 20.281C20.4478 20.5483 20.6506 20.7488 20.7858 20.8156L20.9886 20.9493C21.1238 21.0161 21.259 21.0829 21.4618 21.1497C21.6646 21.2166 21.7998 21.2166 21.9351 21.2166L24.2336 21.1497C24.4364 21.1497 24.6392 21.0829 24.7744 21.0161C24.9097 20.9493 24.9772 20.8824 24.9772 20.7488C24.9772 20.682 24.9772 20.5483 24.9772 20.4815C24.842 20.3479 24.8421 20.281 24.8421 20.2142Z" fill="#C7C7C7"/>
</svg>
