<svg width="33" height="34" viewBox="0 0 33 34" fill="none" xmlns="http://www.w3.org/2000/svg">
<ellipse cx="16.2857" cy="16.9025" rx="16.2857" ry="16.0988" fill="#313131"/>
<path d="M23.3805 16.0291C23.3805 15.7169 23.3279 15.3526 23.3279 14.9363C23.2752 14.52 23.2226 14.1037 23.1699 13.7394C23.0647 13.3231 22.9067 13.0109 22.5909 12.7507C22.3277 12.4905 21.9592 12.3344 21.5907 12.2824C20.38 12.1263 18.5902 12.0742 16.1688 12.0742C13.7473 12.0742 11.9049 12.1263 10.7468 12.2824C10.3783 12.3344 10.0098 12.4905 9.74664 12.7507C9.48344 13.0109 9.27287 13.3231 9.16759 13.7394C9.06231 14.1037 9.00967 14.468 9.00967 14.9363C8.95703 15.3526 8.95703 15.7169 8.95703 16.0291C8.95703 16.3413 8.95703 16.7056 8.95703 17.2259C8.95703 17.7463 8.95703 18.1626 8.95703 18.4228C8.95703 18.735 9.00967 19.0993 9.00967 19.5156C9.06232 19.9319 9.11495 20.3482 9.16759 20.7125C9.27287 21.1288 9.43079 21.441 9.74664 21.7012C10.0098 21.9614 10.3783 22.1175 10.7468 22.1695C11.9575 22.3256 13.7473 22.3777 16.1688 22.3777C18.5902 22.3777 20.4326 22.3256 21.5907 22.1695C21.9592 22.1175 22.3277 21.9614 22.5909 21.7012C22.8541 21.441 23.0647 21.1288 23.1699 20.7125C23.2752 20.3482 23.3279 19.984 23.3279 19.5156C23.3805 19.0993 23.3805 18.735 23.3805 18.4228C23.3805 18.1106 23.3805 17.7463 23.3805 17.2259C23.3805 16.7056 23.3805 16.2893 23.3805 16.0291ZM18.9587 17.6423L14.8001 20.1921C14.7475 20.2441 14.6422 20.2962 14.5369 20.2962C14.4316 20.2962 14.379 20.2962 14.2737 20.2441C14.1158 20.1401 14.0105 19.984 14.0105 19.7758V14.6241C14.0105 14.4159 14.1158 14.2598 14.2737 14.1557C14.4316 14.0517 14.6422 14.0517 14.8001 14.1557L18.9587 16.7056C19.1166 16.8096 19.2219 16.9658 19.2219 17.1219C19.2219 17.278 19.1166 17.5382 18.9587 17.6423Z" fill="#C7C7C7"/>
</svg>
