<svg width="212" height="26" viewBox="0 0 212 26" fill="none" xmlns="http://www.w3.org/2000/svg">
<path d="M22.6914 25L17.4097 13.1055L22.0117 2.41455H13.2466L9.06934 13.2612L9.09766 10.6558V2.41455H0.530762V25H9.09766V17.0137L9.93311 15.1587L13.5015 25H22.6914ZM32.207 0.800293V4.82178H24.1216V0.800293H32.207ZM32.207 25H24.1216V6.5918H32.207V25ZM47.4292 6.20947C49.3644 6.21891 50.8418 6.68148 51.8613 7.59717C52.8809 8.51286 53.3906 9.85807 53.3906 11.6328V25H45.3052V9.35303H42.9404V25H34.855V6.5918H42.0767L42.6006 8.17773C43.0254 7.58301 43.672 7.10628 44.5405 6.74756C45.409 6.38883 46.3719 6.20947 47.4292 6.20947ZM64.9595 25.4248C64.3742 25.4248 63.8691 25.4201 63.4443 25.4106C63.0195 25.4012 62.5286 25.3776 61.9717 25.3398C61.4147 25.3021 60.9333 25.2454 60.5273 25.1699C60.1309 25.1038 59.6966 25.0047 59.2246 24.8726C58.762 24.7404 58.3656 24.5846 58.0352 24.4053C57.7142 24.2259 57.3885 23.9993 57.0581 23.7256C56.7371 23.4518 56.4775 23.145 56.2793 22.8052C56.0905 22.4653 55.9347 22.0641 55.812 21.6016C55.6987 21.139 55.6421 20.6292 55.6421 20.0723V11.5054C55.6421 10.9106 55.7129 10.3678 55.8545 9.87695C56.0055 9.37663 56.2227 8.95182 56.5059 8.60254C56.7985 8.25326 57.1195 7.94645 57.4688 7.68213C57.8275 7.40837 58.2523 7.18652 58.7432 7.0166C59.234 6.84668 59.7061 6.70508 60.1592 6.5918C60.6217 6.47852 61.1504 6.39827 61.7451 6.35107C62.3493 6.29443 62.8874 6.25667 63.3594 6.23779C63.8314 6.21891 64.3695 6.20947 64.9736 6.20947C65.71 6.20947 66.3566 6.22363 66.9136 6.25195C67.48 6.27083 68.0983 6.32275 68.7686 6.40771C69.4388 6.49268 70.0146 6.61068 70.4961 6.76172C70.987 6.91276 71.4731 7.12044 71.9546 7.38477C72.4455 7.64909 72.842 7.96533 73.144 8.3335C73.4556 8.70166 73.7057 9.15479 73.8945 9.69287C74.0833 10.231 74.1777 10.8398 74.1777 11.5195V20.0864C74.1777 20.8133 74.0739 21.46 73.8662 22.0264C73.668 22.5928 73.4178 23.0648 73.1157 23.4424C72.8231 23.8105 72.4124 24.1268 71.8838 24.3911C71.3646 24.646 70.8784 24.8395 70.4253 24.9717C69.9722 25.1038 69.3822 25.203 68.6553 25.269C67.9284 25.3446 67.3242 25.387 66.8428 25.3965C66.3708 25.4154 65.743 25.4248 64.9595 25.4248ZM63.7275 21.7715H66.0781V9.35303H63.7275V21.7715ZM93.9878 11.4346L91.7646 25.0142H85.7183L83.665 11.4346H83.4668L82.6738 25H76.146L77.3354 2.41455H86.8228L88.6211 15.4985H88.8052L90.6035 2.41455H100.105L101.294 25H94.979L94.186 11.4346H93.9878ZM112.566 25.4248C111.981 25.4248 111.476 25.4201 111.051 25.4106C110.626 25.4012 110.135 25.3776 109.578 25.3398C109.021 25.3021 108.54 25.2454 108.134 25.1699C107.737 25.1038 107.303 25.0047 106.831 24.8726C106.368 24.7404 105.972 24.5846 105.642 24.4053C105.321 24.2259 104.995 23.9993 104.665 23.7256C104.344 23.4518 104.084 23.145 103.886 22.8052C103.697 22.4653 103.541 22.0641 103.418 21.6016C103.305 21.139 103.249 20.6292 103.249 20.0723V11.5054C103.249 10.9106 103.319 10.3678 103.461 9.87695C103.612 9.37663 103.829 8.95182 104.112 8.60254C104.405 8.25326 104.726 7.94645 105.075 7.68213C105.434 7.40837 105.859 7.18652 106.35 7.0166C106.84 6.84668 107.312 6.70508 107.766 6.5918C108.228 6.47852 108.757 6.39827 109.352 6.35107C109.956 6.29443 110.494 6.25667 110.966 6.23779C111.438 6.21891 111.976 6.20947 112.58 6.20947C113.316 6.20947 113.963 6.22363 114.52 6.25195C115.086 6.27083 115.705 6.32275 116.375 6.40771C117.045 6.49268 117.621 6.61068 118.103 6.76172C118.593 6.91276 119.08 7.12044 119.561 7.38477C120.052 7.64909 120.448 7.96533 120.75 8.3335C121.062 8.70166 121.312 9.15479 121.501 9.69287C121.69 10.231 121.784 10.8398 121.784 11.5195V20.0864C121.784 20.8133 121.68 21.46 121.473 22.0264C121.274 22.5928 121.024 23.0648 120.722 23.4424C120.43 23.8105 120.019 24.1268 119.49 24.3911C118.971 24.646 118.485 24.8395 118.032 24.9717C117.579 25.1038 116.989 25.203 116.262 25.269C115.535 25.3446 114.931 25.387 114.449 25.3965C113.977 25.4154 113.349 25.4248 112.566 25.4248ZM111.334 21.7715H113.685V9.35303H111.334V21.7715ZM136.78 6.20947C138.715 6.21891 140.192 6.68148 141.212 7.59717C142.231 8.51286 142.741 9.85807 142.741 11.6328V25H134.656V9.35303H132.291V25H124.206V6.5918H131.427L131.951 8.17773C132.376 7.58301 133.023 7.10628 133.891 6.74756C134.76 6.38883 135.722 6.20947 136.78 6.20947ZM155.16 18.6846H155.174C155.098 18.5996 154.891 18.5335 154.551 18.4863C154.371 18.458 154.055 18.4155 153.602 18.3589C153.158 18.3022 152.809 18.2598 152.554 18.2314C152.309 18.1937 151.997 18.1465 151.62 18.0898C151.251 18.0238 150.912 17.9577 150.6 17.8916C150.289 17.8255 149.991 17.7547 149.708 17.6792C149.009 17.4904 148.372 17.245 147.796 16.9429C147.23 16.6408 146.706 16.2726 146.225 15.8384C145.753 15.4041 145.384 14.8849 145.12 14.2808C144.856 13.6672 144.724 12.9922 144.724 12.2559C144.724 11.529 144.809 10.8729 144.979 10.2876C145.148 9.70231 145.38 9.20199 145.672 8.78662C145.965 8.37126 146.338 8.01253 146.791 7.71045C147.254 7.39893 147.74 7.14876 148.25 6.95996C148.759 6.77116 149.349 6.62012 150.02 6.50684C150.69 6.39355 151.351 6.31803 152.002 6.28027C152.653 6.23307 153.385 6.20947 154.197 6.20947C154.858 6.20947 155.424 6.21891 155.896 6.23779C156.377 6.25667 156.939 6.30387 157.581 6.37939C158.223 6.45492 158.771 6.56348 159.224 6.70508C159.677 6.83724 160.144 7.03548 160.625 7.2998C161.107 7.56413 161.494 7.87565 161.787 8.23438C162.079 8.5931 162.32 9.05094 162.509 9.60791C162.707 10.1554 162.806 10.7738 162.806 11.4629C162.806 12.1143 162.801 12.5107 162.792 12.6523L155.16 12.2275V9.94775H152.795V12.8081C152.88 12.8931 153.092 12.9639 153.432 13.0205C153.687 13.0583 154.187 13.1338 154.933 13.2471C155.679 13.3509 156.311 13.45 156.831 13.5444C157.35 13.6388 157.831 13.7474 158.275 13.8701C158.955 14.0589 159.573 14.2949 160.13 14.5781C160.696 14.8519 161.22 15.1965 161.702 15.6118C162.183 16.0177 162.561 16.5181 162.834 17.1128C163.108 17.6981 163.245 18.3447 163.245 19.0527C163.245 19.7702 163.174 20.4215 163.033 21.0068C162.901 21.5921 162.698 22.0972 162.424 22.522C162.16 22.9468 161.857 23.3197 161.518 23.6406C161.187 23.9616 160.781 24.2259 160.3 24.4336C159.818 24.6413 159.346 24.8159 158.884 24.9575C158.421 25.0897 157.883 25.1888 157.27 25.2549C156.656 25.321 156.09 25.3634 155.57 25.3823C155.051 25.4106 154.456 25.4248 153.786 25.4248C152.993 25.4248 152.309 25.4106 151.733 25.3823C151.157 25.354 150.548 25.2879 149.906 25.1841C149.264 25.0897 148.722 24.9575 148.278 24.7876C147.844 24.6082 147.414 24.3675 146.989 24.0654C146.564 23.7633 146.225 23.4046 145.97 22.9893C145.724 22.5645 145.526 22.05 145.375 21.4458C145.224 20.8416 145.148 20.1525 145.148 19.3784C145.148 19.1613 145.153 18.9961 145.163 18.8828L152.795 19.3359V21.7007H155.16V18.6846ZM176.796 25.0991C176.796 25.0991 176.768 25.1038 176.711 25.1133C176.655 25.1227 176.575 25.1322 176.471 25.1416C176.367 25.1605 176.244 25.1794 176.103 25.1982C175.97 25.2171 175.815 25.236 175.635 25.2549C175.456 25.2738 175.272 25.2879 175.083 25.2974C174.894 25.3162 174.687 25.3304 174.46 25.3398C174.243 25.3493 174.026 25.354 173.809 25.354C172.789 25.354 171.916 25.3257 171.189 25.269C170.472 25.2124 169.797 25.1086 169.164 24.9575C168.541 24.8065 168.031 24.6035 167.635 24.3486C167.238 24.0938 166.898 23.7633 166.615 23.3574C166.332 22.9515 166.129 22.4701 166.006 21.9131C165.884 21.3467 165.822 20.6812 165.822 19.9165V9.42383H163.882V6.5918H165.822V2.41455H173.908V6.5918H176.159V9.42383H173.908V20.3555C173.908 20.6481 173.983 20.8983 174.134 21.106C174.285 21.3042 174.502 21.4552 174.786 21.5591C175.069 21.6629 175.366 21.7384 175.678 21.7856C175.999 21.8234 176.372 21.8423 176.796 21.8423V25.0991ZM186.482 13.9976H188.861V9.35303H186.482V13.9976ZM196.932 18.1606C197.008 18.7365 197.045 19.2227 197.045 19.6191C197.045 21.7337 196.29 23.23 194.78 24.1079C193.279 24.9858 190.914 25.4248 187.686 25.4248C187.129 25.4248 186.642 25.4201 186.227 25.4106C185.812 25.4012 185.33 25.3729 184.783 25.3257C184.235 25.2879 183.758 25.2313 183.353 25.1558C182.947 25.0897 182.508 24.9906 182.036 24.8584C181.573 24.7262 181.172 24.5705 180.832 24.3911C180.502 24.2023 180.171 23.971 179.841 23.6973C179.52 23.4235 179.256 23.1167 179.048 22.7769C178.85 22.4276 178.689 22.0169 178.566 21.5449C178.444 21.0729 178.382 20.5584 178.382 20.0015V11.5054C178.382 10.8162 178.486 10.1979 178.694 9.65039C178.902 9.09342 179.166 8.63558 179.487 8.27686C179.817 7.90869 180.242 7.59245 180.761 7.32812C181.29 7.0638 181.8 6.86084 182.291 6.71924C182.791 6.57764 183.381 6.46908 184.061 6.39355C184.74 6.30859 185.335 6.25667 185.845 6.23779C186.364 6.21891 186.968 6.20947 187.657 6.20947C188.195 6.20947 188.667 6.21419 189.073 6.22363C189.479 6.23307 189.951 6.25667 190.489 6.29443C191.037 6.33219 191.509 6.38883 191.905 6.46436C192.311 6.53044 192.75 6.62956 193.222 6.76172C193.694 6.88444 194.1 7.03548 194.44 7.21484C194.78 7.39421 195.115 7.62077 195.445 7.89453C195.776 8.15885 196.04 8.46094 196.238 8.80078C196.446 9.13118 196.611 9.52767 196.734 9.99023C196.866 10.4434 196.932 10.9437 196.932 11.4912V16.4473H186.482V22.1821H188.847V18.1606H196.932ZM199.283 25L199.297 6.5918H206.179L206.759 8.67334C207.071 7.92757 207.647 7.33757 208.487 6.90332C209.327 6.46908 210.304 6.23779 211.418 6.20947V11.562L207.368 12.355V25H199.283Z" fill="white"/>
</svg>
