<svg width="252" height="41" viewBox="0 0 252 41" fill="none" xmlns="http://www.w3.org/2000/svg">
<path d="M62.6914 30L57.4097 18.1055L62.0117 7.41455H53.2466L49.0693 18.2612L49.0977 15.6558V7.41455H40.5308V30H49.0977V22.0137L49.9331 20.1587L53.5015 30H62.6914ZM72.207 5.80029V9.82178H64.1216V5.80029H72.207ZM72.207 30H64.1216V11.5918H72.207V30ZM87.4292 11.2095C89.3644 11.2189 90.8418 11.6815 91.8613 12.5972C92.8809 13.5129 93.3906 14.8581 93.3906 16.6328V30H85.3052V14.353H82.9404V30H74.855V11.5918H82.0767L82.6006 13.1777C83.0254 12.583 83.672 12.1063 84.5405 11.7476C85.409 11.3888 86.3719 11.2095 87.4292 11.2095ZM104.959 30.4248C104.374 30.4248 103.869 30.4201 103.444 30.4106C103.02 30.4012 102.529 30.3776 101.972 30.3398C101.415 30.3021 100.933 30.2454 100.527 30.1699C100.131 30.1038 99.6966 30.0047 99.2246 29.8726C98.762 29.7404 98.3656 29.5846 98.0352 29.4053C97.7142 29.2259 97.3885 28.9993 97.0581 28.7256C96.7371 28.4518 96.4775 28.145 96.2793 27.8052C96.0905 27.4653 95.9347 27.0641 95.812 26.6016C95.6987 26.139 95.6421 25.6292 95.6421 25.0723V16.5054C95.6421 15.9106 95.7129 15.3678 95.8545 14.877C96.0055 14.3766 96.2227 13.9518 96.5059 13.6025C96.7985 13.2533 97.1195 12.9465 97.4688 12.6821C97.8275 12.4084 98.2523 12.1865 98.7432 12.0166C99.234 11.8467 99.7061 11.7051 100.159 11.5918C100.622 11.4785 101.15 11.3983 101.745 11.3511C102.349 11.2944 102.887 11.2567 103.359 11.2378C103.831 11.2189 104.369 11.2095 104.974 11.2095C105.71 11.2095 106.357 11.2236 106.914 11.252C107.48 11.2708 108.098 11.3228 108.769 11.4077C109.439 11.4927 110.015 11.6107 110.496 11.7617C110.987 11.9128 111.473 12.1204 111.955 12.3848C112.445 12.6491 112.842 12.9653 113.144 13.3335C113.456 13.7017 113.706 14.1548 113.895 14.6929C114.083 15.231 114.178 15.8398 114.178 16.5195V25.0864C114.178 25.8133 114.074 26.46 113.866 27.0264C113.668 27.5928 113.418 28.0648 113.116 28.4424C112.823 28.8105 112.412 29.1268 111.884 29.3911C111.365 29.646 110.878 29.8395 110.425 29.9717C109.972 30.1038 109.382 30.203 108.655 30.269C107.928 30.3446 107.324 30.387 106.843 30.3965C106.371 30.4154 105.743 30.4248 104.959 30.4248ZM103.728 26.7715H106.078V14.353H103.728V26.7715ZM133.988 16.4346L131.765 30.0142H125.718L123.665 16.4346H123.467L122.674 30H116.146L117.335 7.41455H126.823L128.621 20.4985H128.805L130.604 7.41455H140.105L141.294 30H134.979L134.186 16.4346H133.988ZM152.566 30.4248C151.981 30.4248 151.476 30.4201 151.051 30.4106C150.626 30.4012 150.135 30.3776 149.578 30.3398C149.021 30.3021 148.54 30.2454 148.134 30.1699C147.737 30.1038 147.303 30.0047 146.831 29.8726C146.368 29.7404 145.972 29.5846 145.642 29.4053C145.321 29.2259 144.995 28.9993 144.665 28.7256C144.344 28.4518 144.084 28.145 143.886 27.8052C143.697 27.4653 143.541 27.0641 143.418 26.6016C143.305 26.139 143.249 25.6292 143.249 25.0723V16.5054C143.249 15.9106 143.319 15.3678 143.461 14.877C143.612 14.3766 143.829 13.9518 144.112 13.6025C144.405 13.2533 144.726 12.9465 145.075 12.6821C145.434 12.4084 145.859 12.1865 146.35 12.0166C146.84 11.8467 147.312 11.7051 147.766 11.5918C148.228 11.4785 148.757 11.3983 149.352 11.3511C149.956 11.2944 150.494 11.2567 150.966 11.2378C151.438 11.2189 151.976 11.2095 152.58 11.2095C153.316 11.2095 153.963 11.2236 154.52 11.252C155.086 11.2708 155.705 11.3228 156.375 11.4077C157.045 11.4927 157.621 11.6107 158.103 11.7617C158.593 11.9128 159.08 12.1204 159.561 12.3848C160.052 12.6491 160.448 12.9653 160.75 13.3335C161.062 13.7017 161.312 14.1548 161.501 14.6929C161.69 15.231 161.784 15.8398 161.784 16.5195V25.0864C161.784 25.8133 161.68 26.46 161.473 27.0264C161.274 27.5928 161.024 28.0648 160.722 28.4424C160.43 28.8105 160.019 29.1268 159.49 29.3911C158.971 29.646 158.485 29.8395 158.032 29.9717C157.579 30.1038 156.989 30.203 156.262 30.269C155.535 30.3446 154.931 30.387 154.449 30.3965C153.977 30.4154 153.349 30.4248 152.566 30.4248ZM151.334 26.7715H153.685V14.353H151.334V26.7715ZM176.78 11.2095C178.715 11.2189 180.192 11.6815 181.212 12.5972C182.231 13.5129 182.741 14.8581 182.741 16.6328V30H174.656V14.353H172.291V30H164.206V11.5918H171.427L171.951 13.1777C172.376 12.583 173.023 12.1063 173.891 11.7476C174.76 11.3888 175.722 11.2095 176.78 11.2095ZM195.16 23.6846H195.174C195.098 23.5996 194.891 23.5335 194.551 23.4863C194.371 23.458 194.055 23.4155 193.602 23.3589C193.158 23.3022 192.809 23.2598 192.554 23.2314C192.309 23.1937 191.997 23.1465 191.62 23.0898C191.251 23.0238 190.912 22.9577 190.6 22.8916C190.289 22.8255 189.991 22.7547 189.708 22.6792C189.009 22.4904 188.372 22.245 187.796 21.9429C187.23 21.6408 186.706 21.2726 186.225 20.8384C185.753 20.4041 185.384 19.8849 185.12 19.2808C184.856 18.6672 184.724 17.9922 184.724 17.2559C184.724 16.529 184.809 15.8729 184.979 15.2876C185.148 14.7023 185.38 14.202 185.672 13.7866C185.965 13.3713 186.338 13.0125 186.791 12.7104C187.254 12.3989 187.74 12.1488 188.25 11.96C188.759 11.7712 189.349 11.6201 190.02 11.5068C190.69 11.3936 191.351 11.318 192.002 11.2803C192.653 11.2331 193.385 11.2095 194.197 11.2095C194.858 11.2095 195.424 11.2189 195.896 11.2378C196.377 11.2567 196.939 11.3039 197.581 11.3794C198.223 11.4549 198.771 11.5635 199.224 11.7051C199.677 11.8372 200.144 12.0355 200.625 12.2998C201.107 12.5641 201.494 12.8757 201.787 13.2344C202.079 13.5931 202.32 14.0509 202.509 14.6079C202.707 15.1554 202.806 15.7738 202.806 16.4629C202.806 17.1143 202.801 17.5107 202.792 17.6523L195.16 17.2275V14.9478H192.795V17.8081C192.88 17.8931 193.092 17.9639 193.432 18.0205C193.687 18.0583 194.187 18.1338 194.933 18.2471C195.679 18.3509 196.311 18.45 196.831 18.5444C197.35 18.6388 197.831 18.7474 198.275 18.8701C198.955 19.0589 199.573 19.2949 200.13 19.5781C200.696 19.8519 201.22 20.1965 201.702 20.6118C202.183 21.0177 202.561 21.5181 202.834 22.1128C203.108 22.6981 203.245 23.3447 203.245 24.0527C203.245 24.7702 203.174 25.4215 203.033 26.0068C202.901 26.5921 202.698 27.0972 202.424 27.522C202.16 27.9468 201.857 28.3197 201.518 28.6406C201.187 28.9616 200.781 29.2259 200.3 29.4336C199.818 29.6413 199.346 29.8159 198.884 29.9575C198.421 30.0897 197.883 30.1888 197.27 30.2549C196.656 30.321 196.09 30.3634 195.57 30.3823C195.051 30.4106 194.456 30.4248 193.786 30.4248C192.993 30.4248 192.309 30.4106 191.733 30.3823C191.157 30.354 190.548 30.2879 189.906 30.1841C189.264 30.0897 188.722 29.9575 188.278 29.7876C187.844 29.6082 187.414 29.3675 186.989 29.0654C186.564 28.7633 186.225 28.4046 185.97 27.9893C185.724 27.5645 185.526 27.05 185.375 26.4458C185.224 25.8416 185.148 25.1525 185.148 24.3784C185.148 24.1613 185.153 23.9961 185.163 23.8828L192.795 24.3359V26.7007H195.16V23.6846ZM216.796 30.0991C216.796 30.0991 216.768 30.1038 216.711 30.1133C216.655 30.1227 216.575 30.1322 216.471 30.1416C216.367 30.1605 216.244 30.1794 216.103 30.1982C215.97 30.2171 215.815 30.236 215.635 30.2549C215.456 30.2738 215.272 30.2879 215.083 30.2974C214.894 30.3162 214.687 30.3304 214.46 30.3398C214.243 30.3493 214.026 30.354 213.809 30.354C212.789 30.354 211.916 30.3257 211.189 30.269C210.472 30.2124 209.797 30.1086 209.164 29.9575C208.541 29.8065 208.031 29.6035 207.635 29.3486C207.238 29.0938 206.898 28.7633 206.615 28.3574C206.332 27.9515 206.129 27.4701 206.006 26.9131C205.884 26.3467 205.822 25.6812 205.822 24.9165V14.4238H203.882V11.5918H205.822V7.41455H213.908V11.5918H216.159V14.4238H213.908V25.3555C213.908 25.6481 213.983 25.8983 214.134 26.106C214.285 26.3042 214.502 26.4552 214.786 26.5591C215.069 26.6629 215.366 26.7384 215.678 26.7856C215.999 26.8234 216.372 26.8423 216.796 26.8423V30.0991ZM226.482 18.9976H228.861V14.353H226.482V18.9976ZM236.932 23.1606C237.008 23.7365 237.045 24.2227 237.045 24.6191C237.045 26.7337 236.29 28.23 234.78 29.1079C233.279 29.9858 230.914 30.4248 227.686 30.4248C227.129 30.4248 226.642 30.4201 226.227 30.4106C225.812 30.4012 225.33 30.3729 224.783 30.3257C224.235 30.2879 223.758 30.2313 223.353 30.1558C222.947 30.0897 222.508 29.9906 222.036 29.8584C221.573 29.7262 221.172 29.5705 220.832 29.3911C220.502 29.2023 220.171 28.971 219.841 28.6973C219.52 28.4235 219.256 28.1167 219.048 27.7769C218.85 27.4276 218.689 27.0169 218.566 26.5449C218.444 26.0729 218.382 25.5584 218.382 25.0015V16.5054C218.382 15.8162 218.486 15.1979 218.694 14.6504C218.902 14.0934 219.166 13.6356 219.487 13.2769C219.817 12.9087 220.242 12.5924 220.761 12.3281C221.29 12.0638 221.8 11.8608 222.291 11.7192C222.791 11.5776 223.381 11.4691 224.061 11.3936C224.74 11.3086 225.335 11.2567 225.845 11.2378C226.364 11.2189 226.968 11.2095 227.657 11.2095C228.195 11.2095 228.667 11.2142 229.073 11.2236C229.479 11.2331 229.951 11.2567 230.489 11.2944C231.037 11.3322 231.509 11.3888 231.905 11.4644C232.311 11.5304 232.75 11.6296 233.222 11.7617C233.694 11.8844 234.1 12.0355 234.44 12.2148C234.78 12.3942 235.115 12.6208 235.445 12.8945C235.776 13.1589 236.04 13.4609 236.238 13.8008C236.446 14.1312 236.611 14.5277 236.734 14.9902C236.866 15.4434 236.932 15.9437 236.932 16.4912V21.4473H226.482V27.1821H228.847V23.1606H236.932ZM239.283 30L239.297 11.5918H246.179L246.759 13.6733C247.071 12.9276 247.647 12.3376 248.487 11.9033C249.327 11.4691 250.304 11.2378 251.418 11.2095V16.562L247.368 17.355V30H239.283Z" fill="white"/>
<path fill-rule="evenodd" clip-rule="evenodd" d="M17.5 38C27.165 38 35 30.165 35 20.5C35 10.835 27.165 3 17.5 3C7.83502 3 0 10.835 0 20.5C0 30.165 7.83502 38 17.5 38ZM24.7348 19.0945L11.5659 15.5659L15.0945 28.7348L24.7348 19.0945Z" fill="white"/>
</svg>
